<svg width="147" height="50" viewBox="0 0 147 50" fill="none" xmlns="http://www.w3.org/2000/svg">
<mask id="path-1-outside-1_1_2" maskUnits="userSpaceOnUse" x="-2" y="-2" width="151" height="54" fill="black">
<rect fill="white" x="-2" y="-2" width="151" height="54"/>
<path d="M25.7273 49.0909V30.6364H25.2727C24.8788 31.2727 24.3182 32.0758 23.5909 33.0455C22.8636 34 21.8258 34.8561 20.4773 35.6136C19.1288 36.3561 17.3333 36.7273 15.0909 36.7273C12.1818 36.7273 9.61364 35.9924 7.38636 34.5227C5.15909 33.0379 3.41667 30.947 2.15909 28.25C0.901515 25.5379 0.272727 22.3333 0.272727 18.6364C0.272727 14.9697 0.901515 11.7879 2.15909 9.09091C3.41667 6.39394 5.16667 4.31061 7.40909 2.84091C9.65152 1.37121 12.2424 0.636364 15.1818 0.636364C17.4545 0.636364 19.25 1.01515 20.5682 1.77273C21.9015 2.51515 22.9167 3.36364 23.6136 4.31818C24.3258 5.25757 24.8788 6.0303 25.2727 6.63636H25.9091V1.09091H31.0909V49.0909H25.7273ZM15.8182 31.9091C17.9697 31.9091 19.7879 31.3485 21.2727 30.2273C22.7576 29.0909 23.8864 27.5227 24.6591 25.5227C25.4318 23.5076 25.8182 21.1818 25.8182 18.5455C25.8182 15.9394 25.4394 13.6591 24.6818 11.7045C23.9242 9.73485 22.803 8.20455 21.3182 7.11364C19.8333 6.00757 18 5.45454 15.8182 5.45454C13.5455 5.45454 11.6515 6.03788 10.1364 7.20454C8.63636 8.35606 7.50758 9.92424 6.75 11.9091C6.00758 13.8788 5.63636 16.0909 5.63636 18.5455C5.63636 21.0303 6.01515 23.2879 6.77273 25.3182C7.54546 27.3333 8.68182 28.9394 10.1818 30.1364C11.697 31.3182 13.5758 31.9091 15.8182 31.9091ZM48.8182 36L38.1818 1.09091H43.8182L51.3636 27.8182H51.7273L59.1818 1.09091H64.9091L72.2727 27.7273H72.6364L80.1818 1.09091H85.8182L75.1818 36H69.9091L62.2727 9.18182H61.7273L54.0909 36H48.8182ZM106.358 36.7273C102.994 36.7273 100.093 35.9848 97.6534 34.5C95.2292 33 93.358 30.9091 92.0398 28.2273C90.7367 25.5303 90.0852 22.3939 90.0852 18.8182C90.0852 15.2424 90.7367 12.0909 92.0398 9.36364C93.358 6.62121 95.1913 4.48485 97.5398 2.95454C99.9034 1.40909 102.661 0.636364 105.812 0.636364C107.631 0.636364 109.426 0.939393 111.199 1.54545C112.972 2.15151 114.585 3.13636 116.04 4.5C117.494 5.84848 118.653 7.63636 119.517 9.86364C120.381 12.0909 120.812 14.8333 120.812 18.0909V20.3636H93.9034V15.7273H115.358C115.358 13.7576 114.964 12 114.176 10.4545C113.403 8.90909 112.297 7.68939 110.858 6.79545C109.434 5.90151 107.752 5.45454 105.812 5.45454C103.676 5.45454 101.828 5.98485 100.267 7.04545C98.7216 8.09091 97.5322 9.45454 96.6989 11.1364C95.8655 12.8182 95.4489 14.6212 95.4489 16.5455V19.6364C95.4489 22.2727 95.9034 24.5076 96.8125 26.3409C97.7367 28.1591 99.017 29.5455 100.653 30.5C102.29 31.4394 104.191 31.9091 106.358 31.9091C107.767 31.9091 109.04 31.7121 110.176 31.3182C111.328 30.9091 112.32 30.303 113.153 29.5C113.987 28.6818 114.631 27.6667 115.085 26.4545L120.267 27.9091C119.722 29.6667 118.805 31.2121 117.517 32.5455C116.229 33.8636 114.638 34.8939 112.744 35.6364C110.85 36.3636 108.722 36.7273 106.358 36.7273ZM128.972 36V1.09091H134.153V6.36364H134.517C135.153 4.63636 136.305 3.23485 137.972 2.15909C139.638 1.08333 141.517 0.545452 143.608 0.545452C144.002 0.545452 144.494 0.553028 145.085 0.56818C145.676 0.583332 146.123 0.60606 146.426 0.636364V6.09091C146.244 6.04545 145.828 5.97727 145.176 5.88636C144.54 5.7803 143.866 5.72727 143.153 5.72727C141.456 5.72727 139.941 6.08333 138.608 6.79545C137.29 7.49242 136.244 8.46212 135.472 9.70454C134.714 10.9318 134.335 12.3333 134.335 13.9091V36H128.972Z"/>
</mask>
<path d="M25.7273 49.0909H23.7273V51.0909H25.7273V49.0909ZM25.7273 30.6364H27.7273V28.6364H25.7273V30.6364ZM25.2727 30.6364V28.6364H24.1586L23.5722 29.5837L25.2727 30.6364ZM23.5909 33.0455L25.1818 34.2575L25.1864 34.2515L25.1909 34.2455L23.5909 33.0455ZM20.4773 35.6136L21.4419 37.3657L21.4494 37.3615L21.4569 37.3573L20.4773 35.6136ZM7.38636 34.5227L6.27695 36.1868L6.28484 36.1921L7.38636 34.5227ZM2.15909 28.25L0.344654 29.0913L0.346465 29.0952L2.15909 28.25ZM2.15909 9.09091L0.346465 8.24569L0.346465 8.24569L2.15909 9.09091ZM7.40909 2.84091L6.31277 1.16816L6.31277 1.16816L7.40909 2.84091ZM20.5682 1.77273L19.5716 3.50676L19.5834 3.51351L19.5952 3.52011L20.5682 1.77273ZM23.6136 4.31818L21.9984 5.49757L22.009 5.51208L22.0198 5.52639L23.6136 4.31818ZM25.2727 6.63636L23.5958 7.72634L24.1874 8.63636H25.2727V6.63636ZM25.9091 6.63636V8.63636H27.9091V6.63636H25.9091ZM25.9091 1.09091V-0.909092H23.9091V1.09091H25.9091ZM31.0909 1.09091H33.0909V-0.909092H31.0909V1.09091ZM31.0909 49.0909V51.0909H33.0909V49.0909H31.0909ZM21.2727 30.2273L22.478 31.8234L22.4882 31.8155L21.2727 30.2273ZM24.6591 25.5227L26.5247 26.2435L26.5265 26.2388L24.6591 25.5227ZM24.6818 11.7045L22.8151 12.4225L22.817 12.4273L24.6818 11.7045ZM21.3182 7.11364L20.1234 8.71759L20.134 8.7254L21.3182 7.11364ZM10.1364 7.20454L11.3542 8.79098L11.3566 8.7892L10.1364 7.20454ZM6.75 11.9091L4.88146 11.1959L4.87853 11.2037L6.75 11.9091ZM6.77273 25.3182L4.89892 26.0174L4.90208 26.0258L4.90531 26.0343L6.77273 25.3182ZM10.1818 30.1364L8.93436 31.6996L8.94302 31.7066L8.95176 31.7134L10.1818 30.1364ZM27.7273 49.0909V30.6364H23.7273V49.0909H27.7273ZM25.7273 28.6364H25.2727V32.6364H25.7273V28.6364ZM23.5722 29.5837C23.2226 30.1483 22.7014 30.8981 21.9909 31.8455L25.1909 34.2455C25.935 33.2534 26.5349 32.3971 26.9733 31.6891L23.5722 29.5837ZM22 31.8334C21.4785 32.5179 20.6741 33.209 19.4977 33.87L21.4569 37.3573C22.9774 36.5031 24.2488 35.4821 25.1818 34.2575L22 31.8334ZM19.5127 33.8616C18.5641 34.3839 17.1397 34.7273 15.0909 34.7273V38.7273C17.527 38.7273 19.6935 38.3283 21.4419 37.3657L19.5127 33.8616ZM15.0909 34.7273C12.5366 34.7273 10.3588 34.088 8.48789 32.8534L6.28484 36.1921C8.86843 37.8969 11.827 38.7273 15.0909 38.7273V34.7273ZM8.49576 32.8586C6.60676 31.5993 5.09217 29.8077 3.97172 27.4048L0.346465 29.0952C1.74117 32.0863 3.71142 34.4765 6.27696 36.1868L8.49576 32.8586ZM3.97352 27.4087C2.86357 25.0149 2.27273 22.1098 2.27273 18.6364H-1.72727C-1.72727 22.5568 -1.06054 26.0608 0.344658 29.0913L3.97352 27.4087ZM2.27273 18.6364C2.27273 15.1955 2.86279 12.3143 3.97172 9.93612L0.346465 8.24569C-1.05975 11.2614 -1.72727 14.7439 -1.72727 18.6364H2.27273ZM3.97172 9.93612C5.08993 7.53804 6.60752 5.75755 8.50542 4.51365L6.31277 1.16816C3.72582 2.86367 1.74341 5.24984 0.346465 8.24569L3.97172 9.93612ZM8.50542 4.51365C10.3909 3.27791 12.5929 2.63636 15.1818 2.63636V-1.36364C11.892 -1.36364 8.91216 -0.535489 6.31277 1.16816L8.50542 4.51365ZM15.1818 2.63636C17.2652 2.63636 18.6706 2.98894 19.5716 3.50676L21.5648 0.0387004C19.8294 -0.958637 17.6439 -1.36364 15.1818 -1.36364V2.63636ZM19.5952 3.52011C20.7466 4.16124 21.514 4.83413 21.9984 5.49757L25.2289 3.13879C24.3194 1.89314 23.0564 0.869064 21.5412 0.0253507L19.5952 3.52011ZM22.0198 5.52639C22.7185 6.44803 23.2393 7.17774 23.5958 7.72634L26.9496 5.54639C26.5183 4.88286 25.933 4.06712 25.2074 3.10997L22.0198 5.52639ZM25.2727 8.63636H25.9091V4.63636H25.2727V8.63636ZM27.9091 6.63636V1.09091H23.9091V6.63636H27.9091ZM25.9091 3.09091H31.0909V-0.909092H25.9091V3.09091ZM29.0909 1.09091V49.0909H33.0909V1.09091H29.0909ZM31.0909 47.0909H25.7273V51.0909H31.0909V47.0909ZM15.8182 33.9091C18.3339 33.9091 20.5934 33.2464 22.4779 31.8234L20.0675 28.6312C18.9823 29.4506 17.6055 29.9091 15.8182 29.9091V33.9091ZM22.4882 31.8155C24.3064 30.4241 25.6391 28.5356 26.5247 26.2435L22.7935 24.8019C22.1336 26.5099 21.2088 27.7577 20.0572 28.639L22.4882 31.8155ZM26.5265 26.2388C27.4039 23.9507 27.8182 21.374 27.8182 18.5455H23.8182C23.8182 20.9896 23.4597 23.0645 22.7917 24.8067L26.5265 26.2388ZM27.8182 18.5455C27.8182 15.7502 27.4124 13.2153 26.5466 10.9817L22.817 12.4273C23.4664 14.1029 23.8182 16.1286 23.8182 18.5455H27.8182ZM26.5485 10.9866C25.6741 8.71302 24.3384 6.85085 22.5023 5.50187L20.134 8.7254C21.2676 9.55824 22.1744 10.7567 22.8151 12.4225L26.5485 10.9866ZM22.5129 5.50972C20.6242 4.1028 18.3511 3.45454 15.8182 3.45454V7.45454C17.6489 7.45454 19.0425 7.91235 20.1234 8.71755L22.5129 5.50972ZM15.8182 3.45454C13.1901 3.45454 10.8437 4.13572 8.91618 5.61989L11.3566 8.7892C12.4594 7.94004 13.9008 7.45454 15.8182 7.45454V3.45454ZM8.91849 5.61811C7.0899 7.02187 5.75426 8.90923 4.88148 11.1959L8.61852 12.6223C9.26089 10.9393 10.1828 9.69025 11.3542 8.79098L8.91849 5.61811ZM4.87853 11.2037C4.03828 13.4329 3.63636 15.8893 3.63636 18.5455H7.63636C7.63636 16.2926 7.97688 14.3246 8.62147 12.6145L4.87853 11.2037ZM3.63636 18.5455C3.63636 21.2345 4.04661 23.7332 4.89892 26.0174L8.64653 24.619C7.98369 22.8426 7.63636 20.8261 7.63636 18.5455H3.63636ZM4.90531 26.0343C5.78932 28.3396 7.1225 30.2538 8.93436 31.6996L11.4293 28.5731C10.2411 27.625 9.30159 26.3271 8.64014 24.6021L4.90531 26.0343ZM8.95176 31.7134C10.875 33.2135 13.2076 33.9091 15.8182 33.9091V29.9091C13.9439 29.9091 12.519 29.4229 11.4119 28.5594L8.95176 31.7134ZM48.8182 36L46.905 36.5829L47.3368 38H48.8182V36ZM38.1818 1.09091V-0.909092H35.4817L36.2687 1.67383L38.1818 1.09091ZM43.8182 1.09091L45.7429 0.547521L45.3317 -0.909092H43.8182V1.09091ZM51.3636 27.8182L49.4389 28.3616L49.8501 29.8182H51.3636V27.8182ZM51.7273 27.8182V29.8182H53.2458L53.6537 28.3555L51.7273 27.8182ZM59.1818 1.09091V-0.909092H57.6633L57.2553 0.553593L59.1818 1.09091ZM64.9091 1.09091L66.8368 0.557996L66.4312 -0.909092H64.9091V1.09091ZM72.2727 27.7273L70.345 28.2602L70.7506 29.7273H72.2727V27.7273ZM72.6364 27.7273V29.7273H74.1485L74.5606 28.2724L72.6364 27.7273ZM80.1818 1.09091V-0.909092H78.6697L78.2575 0.545804L80.1818 1.09091ZM85.8182 1.09091L87.7314 1.67383L88.5183 -0.909092H85.8182V1.09091ZM75.1818 36V38H76.6632L77.095 36.5829L75.1818 36ZM69.9091 36L67.9856 36.5477L68.3991 38H69.9091V36ZM62.2727 9.18182L64.1963 8.6341L63.7827 7.18182H62.2727V9.18182ZM61.7273 9.18182V7.18182H60.2173L59.8037 8.6341L61.7273 9.18182ZM54.0909 36V38H55.6009L56.0144 36.5477L54.0909 36ZM50.7313 35.4171L40.095 0.50799L36.2687 1.67383L46.905 36.5829L50.7313 35.4171ZM38.1818 3.09091H43.8182V-0.909092H38.1818V3.09091ZM41.8934 1.63429L49.4389 28.3616L53.2884 27.2748L45.7429 0.547521L41.8934 1.63429ZM51.3636 29.8182H51.7273V25.8182H51.3636V29.8182ZM53.6537 28.3555L61.1083 1.62822L57.2553 0.553593L49.8008 27.2809L53.6537 28.3555ZM59.1818 3.09091H64.9091V-0.909092H59.1818V3.09091ZM62.9814 1.62382L70.345 28.2602L74.2004 27.1944L66.8368 0.557996L62.9814 1.62382ZM72.2727 29.7273H72.6364V25.7273H72.2727V29.7273ZM74.5606 28.2724L82.1061 1.63601L78.2575 0.545804L70.7121 27.1822L74.5606 28.2724ZM80.1818 3.09091H85.8182V-0.909092H80.1818V3.09091ZM83.905 0.50799L73.2687 35.4171L77.095 36.5829L87.7314 1.67383L83.905 0.50799ZM75.1818 34H69.9091V38H75.1818V34ZM71.8326 35.4523L64.1963 8.6341L60.3492 9.72954L67.9856 36.5477L71.8326 35.4523ZM62.2727 7.18182H61.7273V11.1818H62.2727V7.18182ZM59.8037 8.6341L52.1674 35.4523L56.0144 36.5477L63.6508 9.72954L59.8037 8.6341ZM54.0909 34H48.8182V38H54.0909V34ZM97.6534 34.5L96.6011 36.2008L96.6073 36.2046L96.6135 36.2084L97.6534 34.5ZM92.0398 28.2273L90.2389 29.0974L90.2449 29.1095L92.0398 28.2273ZM92.0398 9.36364L90.2372 8.4972L90.2352 8.50143L92.0398 9.36364ZM97.5398 2.95454L98.6317 4.6302L98.6343 4.62848L97.5398 2.95454ZM111.199 1.54545L111.846 -0.347006L111.846 -0.347007L111.199 1.54545ZM116.04 4.5L114.672 5.9591L114.68 5.96668L116.04 4.5ZM119.517 9.86364L121.382 9.14058L121.382 9.14058L119.517 9.86364ZM120.812 20.3636V22.3636H122.812V20.3636H120.812ZM93.9034 20.3636H91.9034V22.3636H93.9034V20.3636ZM93.9034 15.7273V13.7273H91.9034V15.7273H93.9034ZM115.358 15.7273V17.7273H117.358V15.7273H115.358ZM114.176 10.4545L112.387 11.349L112.391 11.356L112.394 11.3629L114.176 10.4545ZM110.858 6.79545L109.795 8.48944L109.803 8.49446L110.858 6.79545ZM100.267 7.04545L101.388 8.70202L101.391 8.69961L100.267 7.04545ZM96.6989 11.1364L94.9068 10.2484L94.9068 10.2484L96.6989 11.1364ZM96.8125 26.3409L95.0207 27.2294L95.0251 27.2383L95.0296 27.2472L96.8125 26.3409ZM100.653 30.5L99.6456 32.2276L99.6577 32.2345L100.653 30.5ZM110.176 31.3182L110.831 33.2079L110.838 33.2053L110.846 33.2028L110.176 31.3182ZM113.153 29.5L114.541 30.9402L114.548 30.9337L114.555 30.9271L113.153 29.5ZM115.085 26.4545L115.626 24.529L113.857 24.0326L113.213 25.7523L115.085 26.4545ZM120.267 27.9091L122.177 28.5019L122.786 26.539L120.808 25.9835L120.267 27.9091ZM117.517 32.5455L118.948 33.9432L118.956 33.9349L117.517 32.5455ZM112.744 35.6364L113.461 37.5035L113.474 37.4984L112.744 35.6364ZM106.358 34.7273C103.295 34.7273 100.767 34.0541 98.6933 32.7916L96.6135 36.2084C99.4182 37.9156 102.693 38.7273 106.358 38.7273V34.7273ZM98.7058 32.7992C96.6168 31.5067 94.9955 29.7067 93.8347 27.345L90.2449 29.1095C91.7204 32.1114 93.8416 34.4933 96.6011 36.2008L98.7058 32.7992ZM93.8406 27.3572C92.6917 24.9792 92.0852 22.1504 92.0852 18.8182H88.0852C88.0852 22.6375 88.7818 26.0814 90.2389 29.0973L93.8406 27.3572ZM92.0852 18.8182C92.0852 15.4867 92.6914 12.639 93.8444 10.2258L90.2352 8.50143C88.7821 11.5428 88.0852 14.9982 88.0852 18.8182H92.0852ZM93.8424 10.2301C95.0161 7.7881 96.6157 5.94385 98.6316 4.63019L96.4479 1.27889C93.7669 3.02585 91.6998 5.45432 90.2372 8.4972L93.8424 10.2301ZM98.6343 4.62848C100.636 3.31996 103.003 2.63636 105.812 2.63636V-1.36364C102.319 -1.36364 99.1713 -0.501778 96.4453 1.2806L98.6343 4.62848ZM105.812 2.63636C107.404 2.63636 108.981 2.90086 110.552 3.43791L111.846 -0.347007C109.871 -1.02208 107.857 -1.36364 105.812 -1.36364V2.63636ZM110.552 3.43791C112.039 3.94643 113.411 4.77669 114.672 5.95907L117.408 3.04093C115.76 1.49604 113.904 0.356595 111.846 -0.347006L110.552 3.43791ZM114.68 5.96668C115.871 7.07088 116.876 8.58532 117.652 10.5867L121.382 9.14058C120.431 6.6874 119.118 4.62608 117.4 3.03332L114.68 5.96668ZM117.652 10.5867C118.401 12.5162 118.812 14.9966 118.812 18.0909H122.812C122.812 14.6701 122.361 11.6656 121.382 9.14058L117.652 10.5867ZM118.812 18.0909V20.3636H122.812V18.0909H118.812ZM120.812 18.3636H93.9034V22.3636H120.812V18.3636ZM95.9034 20.3636V15.7273H91.9034V20.3636H95.9034ZM93.9034 17.7273H115.358V13.7273H93.9034V17.7273ZM117.358 15.7273C117.358 13.4849 116.908 11.409 115.958 9.54617L112.394 11.3629C113.02 12.591 113.358 14.0302 113.358 15.7273H117.358ZM115.965 9.56012C115.03 7.69067 113.673 6.18959 111.913 5.09645L109.803 8.49446C110.921 9.1892 111.777 10.1275 112.387 11.349L115.965 9.56012ZM111.921 5.10149C110.132 3.97843 108.069 3.45454 105.812 3.45454V7.45454C107.435 7.45454 108.736 7.8246 109.795 8.48942L111.921 5.10149ZM105.812 3.45454C103.33 3.45454 101.078 4.07636 99.1429 5.3913L101.391 8.69961C102.578 7.89334 104.022 7.45454 105.812 7.45454V3.45454ZM99.1464 5.38889C97.3127 6.62937 95.8927 8.25856 94.9068 10.2484L98.4909 12.0243C99.1716 10.6505 100.131 9.55245 101.388 8.70202L99.1464 5.38889ZM94.9068 10.2484C93.9332 12.2133 93.4489 14.3212 93.4489 16.5455H97.4489C97.4489 14.9212 97.7979 13.423 98.4909 12.0243L94.9068 10.2484ZM93.4489 16.5455V19.6364H97.4489V16.5455H93.4489ZM93.4489 19.6364C93.4489 22.4951 93.941 25.0521 95.0207 27.2294L98.6043 25.4524C97.8658 23.9631 97.4489 22.0504 97.4489 19.6364H93.4489ZM95.0296 27.2472C96.1141 29.3805 97.6518 31.0645 99.6457 32.2276L101.661 28.7724C100.382 28.0264 99.3594 26.9377 98.5954 25.4346L95.0296 27.2472ZM99.6577 32.2345C101.64 33.3723 103.894 33.9091 106.358 33.9091V29.9091C104.488 29.9091 102.94 29.5065 101.649 28.7655L99.6577 32.2345ZM106.358 33.9091C107.953 33.9091 109.452 33.6862 110.831 33.2079L109.521 29.4285C108.628 29.7381 107.581 29.9091 106.358 29.9091V33.9091ZM110.846 33.2028C112.25 32.7038 113.491 31.9518 114.541 30.9402L111.766 28.0598C111.149 28.6543 110.405 29.1144 109.507 29.4336L110.846 33.2028ZM114.555 30.9271C115.618 29.8834 116.412 28.6121 116.958 27.1568L113.213 25.7523C112.849 26.7212 112.356 27.4803 111.752 28.0729L114.555 30.9271ZM114.545 28.3801L119.727 29.8347L120.808 25.9835L115.626 24.529L114.545 28.3801ZM118.357 27.3163C117.905 28.7728 117.151 30.0459 116.079 31.156L118.956 33.9349C120.459 32.3783 121.538 30.5605 122.177 28.5019L118.357 27.3163ZM116.086 31.1478C115.016 32.2431 113.672 33.1245 112.014 33.7743L113.474 37.4984C115.604 36.6634 117.442 35.4842 118.948 33.9431L116.086 31.1478ZM112.027 33.7693C110.397 34.3955 108.516 34.7273 106.358 34.7273V38.7273C108.927 38.7273 111.304 38.3318 113.461 37.5034L112.027 33.7693ZM128.972 36H126.972V38H128.972V36ZM128.972 1.09091V-0.909092H126.972V1.09091H128.972ZM134.153 1.09091H136.153V-0.909092H134.153V1.09091ZM134.153 6.36364H132.153V8.36364H134.153V6.36364ZM134.517 6.36364V8.36364H135.912L136.394 7.05505L134.517 6.36364ZM137.972 2.15909L136.887 0.478719L136.887 0.47872L137.972 2.15909ZM146.426 0.636364H148.426V-1.17361L146.625 -1.35371L146.426 0.636364ZM146.426 6.09091L145.941 8.03119L148.426 8.65246V6.09091H146.426ZM145.176 5.88636L144.847 7.85915L144.873 7.86351L144.9 7.86717L145.176 5.88636ZM138.608 6.79545L139.543 8.56354L139.55 8.5596L138.608 6.79545ZM135.472 9.70454L133.773 8.64827L133.77 8.65401L135.472 9.70454ZM134.335 36V38H136.335V36H134.335ZM130.972 36V1.09091H126.972V36H130.972ZM128.972 3.09091H134.153V-0.909092H128.972V3.09091ZM132.153 1.09091V6.36364H136.153V1.09091H132.153ZM134.153 8.36364H134.517V4.36364H134.153V8.36364ZM136.394 7.05505C136.868 5.76687 137.724 4.6995 139.056 3.83946L136.887 0.47872C134.886 1.77019 133.438 3.50586 132.64 5.67223L136.394 7.05505ZM139.056 3.83946C140.382 2.98389 141.88 2.54545 143.608 2.54545V-1.45455C141.154 -1.45455 138.895 -0.817227 136.887 0.478719L139.056 3.83946ZM143.608 2.54545C143.979 2.54545 144.453 2.55262 145.034 2.56752L145.136 -1.43116C144.536 -1.44656 144.025 -1.45455 143.608 -1.45455V2.54545ZM145.034 2.56752C145.612 2.58235 146 2.60369 146.227 2.62644L146.625 -1.35371C146.247 -1.39157 145.74 -1.41569 145.136 -1.43116L145.034 2.56752ZM144.426 0.636364V6.09091H148.426V0.636364H144.426ZM146.911 4.15062C146.605 4.07413 146.074 3.9923 145.453 3.90555L144.9 7.86717C145.217 7.91151 145.467 7.94886 145.654 7.97943C145.748 7.99469 145.819 8.00735 145.873 8.01745C145.93 8.02833 145.948 8.03299 145.941 8.03119L146.911 4.15062ZM145.505 3.91357C144.749 3.78765 143.964 3.72727 143.153 3.72727V7.72727C143.767 7.72727 144.33 7.77295 144.847 7.85915L145.505 3.91357ZM143.153 3.72727C141.169 3.72727 139.323 4.14615 137.666 5.0313L139.55 8.5596C140.56 8.02051 141.744 7.72727 143.153 7.72727V3.72727ZM137.673 5.02738C136.048 5.88653 134.737 7.09921 133.773 8.64827L137.17 10.7608C137.752 9.82503 138.531 9.09831 139.543 8.56352L137.673 5.02738ZM133.77 8.65401C132.799 10.226 132.335 11.9978 132.335 13.9091H136.335C136.335 12.6688 136.629 11.6377 137.173 10.7551L133.77 8.65401ZM132.335 13.9091V36H136.335V13.9091H132.335ZM134.335 34H128.972V38H134.335V34Z" fill="black" mask="url(#path-1-outside-1_1_2)"/>
</svg>
